<svg width="30" height="31" viewBox="0 0 30 31" fill="none" xmlns="http://www.w3.org/2000/svg">
<g clip-path="url(#clip0_4_352)">
<path d="M0.256714 3.99962C0.256714 3.15443 0.592463 2.34386 1.1901 1.74622C1.78774 1.14859 2.59831 0.812836 3.4435 0.812836H9.81707C10.6623 0.812836 11.4728 1.14859 12.0705 1.74622C12.6681 2.34386 13.0038 3.15443 13.0038 3.99962V10.3732C13.0038 11.2184 12.6681 12.0289 12.0705 12.6266C11.4728 13.2242 10.6623 13.56 9.81707 13.56H3.4435C2.59831 13.56 1.78774 13.2242 1.1901 12.6266C0.592463 12.0289 0.256714 11.2184 0.256714 10.3732V3.99962ZM3.4435 2.93736C3.16177 2.93736 2.89158 3.04927 2.69237 3.24849C2.49315 3.4477 2.38124 3.71789 2.38124 3.99962V10.3732C2.38124 10.6549 2.49315 10.9251 2.69237 11.1243C2.89158 11.3235 3.16177 11.4354 3.4435 11.4354H9.81707C10.0988 11.4354 10.369 11.3235 10.5682 11.1243C10.7674 10.9251 10.8793 10.6549 10.8793 10.3732V3.99962C10.8793 3.71789 10.7674 3.4477 10.5682 3.24849C10.369 3.04927 10.0988 2.93736 9.81707 2.93736H3.4435ZM17.2529 3.99962C17.2529 3.15443 17.5886 2.34386 18.1863 1.74622C18.7839 1.14859 19.5945 0.812836 20.4397 0.812836H26.8132C27.6584 0.812836 28.469 1.14859 29.0666 1.74622C29.6643 2.34386 30 3.15443 30 3.99962V10.3732C30 11.2184 29.6643 12.0289 29.0666 12.6266C28.469 13.2242 27.6584 13.56 26.8132 13.56H20.4397C19.5945 13.56 18.7839 13.2242 18.1863 12.6266C17.5886 12.0289 17.2529 11.2184 17.2529 10.3732V3.99962ZM20.4397 2.93736C20.1579 2.93736 19.8878 3.04927 19.6885 3.24849C19.4893 3.4477 19.3774 3.71789 19.3774 3.99962V10.3732C19.3774 10.6549 19.4893 10.9251 19.6885 11.1243C19.8878 11.3235 20.1579 11.4354 20.4397 11.4354H26.8132C27.095 11.4354 27.3652 11.3235 27.5644 11.1243C27.7636 10.9251 27.8755 10.6549 27.8755 10.3732V3.99962C27.8755 3.71789 27.7636 3.4477 27.5644 3.24849C27.3652 3.04927 27.095 2.93736 26.8132 2.93736H20.4397ZM0.256714 20.9958C0.256714 20.1506 0.592463 19.34 1.1901 18.7424C1.78774 18.1448 2.59831 17.809 3.4435 17.809H9.81707C10.6623 17.809 11.4728 18.1448 12.0705 18.7424C12.6681 19.34 13.0038 20.1506 13.0038 20.9958V27.3694C13.0038 28.2146 12.6681 29.0251 12.0705 29.6228C11.4728 30.2204 10.6623 30.5562 9.81707 30.5562H3.4435C2.59831 30.5562 1.78774 30.2204 1.1901 29.6228C0.592463 29.0251 0.256714 28.2146 0.256714 27.3694V20.9958ZM3.4435 19.9335C3.16177 19.9335 2.89158 20.0455 2.69237 20.2447C2.49315 20.4439 2.38124 20.7141 2.38124 20.9958V27.3694C2.38124 27.6511 2.49315 27.9213 2.69237 28.1205C2.89158 28.3197 3.16177 28.4316 3.4435 28.4316H9.81707C10.0988 28.4316 10.369 28.3197 10.5682 28.1205C10.7674 27.9213 10.8793 27.6511 10.8793 27.3694V20.9958C10.8793 20.7141 10.7674 20.4439 10.5682 20.2447C10.369 20.0455 10.0988 19.9335 9.81707 19.9335H3.4435ZM17.2529 20.9958C17.2529 20.1506 17.5886 19.34 18.1863 18.7424C18.7839 18.1448 19.5945 17.809 20.4397 17.809H26.8132C27.6584 17.809 28.469 18.1448 29.0666 18.7424C29.6643 19.34 30 20.1506 30 20.9958V27.3694C30 28.2146 29.6643 29.0251 29.0666 29.6228C28.469 30.2204 27.6584 30.5562 26.8132 30.5562H20.4397C19.5945 30.5562 18.7839 30.2204 18.1863 29.6228C17.5886 29.0251 17.2529 28.2146 17.2529 27.3694V20.9958ZM20.4397 19.9335C20.1579 19.9335 19.8878 20.0455 19.6885 20.2447C19.4893 20.4439 19.3774 20.7141 19.3774 20.9958V27.3694C19.3774 27.6511 19.4893 27.9213 19.6885 28.1205C19.8878 28.3197 20.1579 28.4316 20.4397 28.4316H26.8132C27.095 28.4316 27.3652 28.3197 27.5644 28.1205C27.7636 27.9213 27.8755 27.6511 27.8755 27.3694V20.9958C27.8755 20.7141 27.7636 20.4439 27.5644 20.2447C27.3652 20.0455 27.095 19.9335 26.8132 19.9335H20.4397Z" fill="black"/>
</g>
<defs>
<clipPath id="clip0_4_352">
<rect width="29.7433" height="29.7433" fill="white" transform="translate(0.256714 0.812836)"/>
</clipPath>
</defs>
</svg>
