<svg width="35" height="38" viewBox="0 0 35 38" fill="none" xmlns="http://www.w3.org/2000/svg">
<path d="M1.08644 20.6828L0.689862 20.9838L1.08644 20.6828C0.906109 20.4452 0.75821 20.1564 0.655833 19.8308C0.553505 19.5053 0.5 19.1534 0.5 18.796C0.5 18.4386 0.553505 18.0867 0.655833 17.7612L0.179982 17.6116L0.655833 17.7612C0.75821 17.4356 0.906109 17.1468 1.08644 16.9092L0.689862 16.6082L1.08644 16.9092C1.26671 16.6717 1.47342 16.4929 1.68993 16.3747C1.90551 16.2571 2.12911 16.2002 2.34952 16.2002C2.56992 16.2002 2.79352 16.2571 3.0091 16.3747C3.22561 16.4929 3.43232 16.6717 3.61259 16.9092L4.01087 16.6069L3.61259 16.9092C3.79292 17.1468 3.94082 17.4356 4.0432 17.7612C4.14553 18.0867 4.19903 18.4386 4.19903 18.796C4.19903 19.1534 4.14553 19.5053 4.0432 19.8308C3.94082 20.1564 3.79292 20.4452 3.61259 20.6828L4.01087 20.9851L3.61259 20.6828C3.43232 20.9203 3.22561 21.0991 3.0091 21.2173C2.79352 21.3349 2.56992 21.3918 2.34952 21.3918C2.12911 21.3918 1.90551 21.3349 1.68993 21.2173C1.47342 21.0991 1.26671 20.9203 1.08644 20.6828ZM1.08644 36.383L0.689011 36.6846L1.08644 36.383C0.906109 36.1454 0.75821 35.8566 0.655833 35.531C0.553505 35.2055 0.5 34.8536 0.5 34.4962C0.5 34.1388 0.553505 33.7869 0.655833 33.4614L0.178846 33.3115L0.655833 33.4614C0.75821 33.1358 0.906109 32.847 1.08644 32.6094C1.26671 32.3719 1.47342 32.1931 1.68993 32.0749C1.90551 31.9573 2.12911 31.9004 2.34952 31.9004C2.56992 31.9004 2.79352 31.9573 3.0091 32.0749C3.22561 32.1931 3.43232 32.3719 3.61259 32.6094C3.79292 32.847 3.94082 33.1358 4.0432 33.4614C4.14553 33.7869 4.19903 34.1388 4.19903 34.4962C4.19903 34.8536 4.14553 35.2055 4.0432 35.531C3.94082 35.8566 3.79292 36.1454 3.61259 36.383L4.01087 36.6853L3.61259 36.383C3.43232 36.6205 3.22561 36.7993 3.0091 36.9175C2.79352 37.0351 2.56992 37.092 2.34952 37.092C2.12911 37.092 1.90551 37.0351 1.68993 36.9175C1.47342 36.7993 1.26671 36.6205 1.08644 36.383ZM9.56242 4.58598V1.60565H33.7358V4.58598H9.56242ZM9.56242 20.2862V17.3058H33.7358V20.2862H9.56242ZM9.56242 35.9864V33.006H33.7358V35.9864H9.56242ZM0.655833 4.13058C0.553505 3.80507 0.5 3.45317 0.5 3.09581C0.5 2.73845 0.553505 2.38655 0.655833 2.06104C0.75821 1.73537 0.906109 1.44663 1.08644 1.20901C1.26671 0.971484 1.47342 0.79271 1.68993 0.674541C1.90551 0.556883 2.12911 0.5 2.34952 0.5C2.56992 0.5 2.79352 0.556883 3.0091 0.674541C3.22561 0.79271 3.43232 0.971484 3.61259 1.20901C3.79292 1.44663 3.94082 1.73537 4.0432 2.06104C4.14553 2.38655 4.19903 2.73845 4.19903 3.09581C4.19903 3.45317 4.14553 3.80507 4.0432 4.13058C3.94082 4.45625 3.79292 4.745 3.61259 4.98261C3.43232 5.22014 3.22561 5.39891 3.0091 5.51708C2.79352 5.63474 2.56992 5.69163 2.34952 5.69163C2.12911 5.69163 1.90551 5.63474 1.68993 5.51708C1.47342 5.39891 1.26671 5.22014 1.08644 4.98261C0.90611 4.745 0.75821 4.45625 0.655833 4.13058Z" fill="black" stroke="black"/>
</svg>
