<svg width="57" height="57" viewBox="0 0 57 57" fill="none" xmlns="http://www.w3.org/2000/svg">
<path d="M28.5 4.75C22.226 4.83001 16.2315 7.35793 11.7947 11.7947C7.35793 16.2315 4.83001 22.226 4.75 28.5C4.77933 32.1549 5.65184 35.7538 7.29959 39.0163C8.94734 42.2789 11.3259 45.1171 14.25 47.31V47.5H14.4875C18.5088 50.5815 23.4338 52.2515 28.5 52.2515C33.5662 52.2515 38.4912 50.5815 42.5125 47.5H42.75V47.31C45.6741 45.1171 48.0527 42.2789 49.7004 39.0163C51.3482 35.7538 52.2207 32.1549 52.25 28.5C52.17 22.226 49.6421 16.2315 45.2053 11.7947C40.7685 7.35793 34.774 4.83001 28.5 4.75ZM19.1662 44.9588C19.513 43.3709 20.3921 41.9494 21.6578 40.9299C22.9235 39.9104 24.4998 39.3543 26.125 39.3537H30.875C32.5002 39.3543 34.0765 39.9104 35.3422 40.9299C36.6079 41.9494 37.487 43.3709 37.8338 44.9588C35.0048 46.6232 31.7823 47.5009 28.5 47.5009C25.2177 47.5009 21.9952 46.6232 19.1662 44.9588ZM41.8238 41.895C40.9204 39.736 39.3992 37.8921 37.4512 36.5949C35.5032 35.2976 33.2154 34.6049 30.875 34.6037H26.125C23.7846 34.6049 21.4968 35.2976 19.5488 36.5949C17.6008 37.8921 16.0796 39.736 15.1762 41.895C13.3966 40.1446 11.9793 38.0607 11.0053 35.7623C10.0313 33.4639 9.51984 30.9961 9.5 28.5C9.5616 23.48 11.5832 18.683 15.1331 15.1331C18.683 11.5832 23.48 9.5616 28.5 9.5C33.52 9.5616 38.317 11.5832 41.8669 15.1331C45.4168 18.683 47.4384 23.48 47.5 28.5C47.4802 30.9961 46.9687 33.4639 45.9947 35.7623C45.0207 38.0607 43.6034 40.1446 41.8238 41.895Z" fill="black"/>
<path d="M28.5 14.25C27.2445 14.2207 25.996 14.4464 24.8302 14.9135C23.6644 15.3806 22.6054 16.0793 21.7174 16.9673C20.8293 17.8554 20.1306 18.9143 19.6636 20.0801C19.1965 21.246 18.9708 22.4944 19 23.75C18.9708 25.0055 19.1965 26.254 19.6636 27.4198C20.1306 28.5856 20.8293 29.6445 21.7174 30.5326C22.6054 31.4206 23.6644 32.1193 24.8302 32.5864C25.996 33.0535 27.2445 33.2792 28.5 33.25C29.7556 33.2792 31.004 33.0535 32.1698 32.5864C33.3356 32.1193 34.3946 31.4206 35.2827 30.5326C36.1707 29.6445 36.8694 28.5856 37.3365 27.4198C37.8035 26.254 38.0293 25.0055 38 23.75C38.0293 22.4944 37.8035 21.246 37.3365 20.0801C36.8694 18.9143 36.1707 17.8554 35.2827 16.9673C34.3946 16.0793 33.3356 15.3806 32.1698 14.9135C31.004 14.4464 29.7556 14.2207 28.5 14.25ZM28.5 28.5C27.8681 28.5305 27.2369 28.4285 26.6467 28.2006C26.0566 27.9727 25.5207 27.6239 25.0734 27.1766C24.626 26.7293 24.2772 26.1934 24.0493 25.6032C23.8214 25.0131 23.7195 24.3818 23.75 23.75C23.7195 23.1181 23.8214 22.4868 24.0493 21.8967C24.2772 21.3066 24.626 20.7706 25.0734 20.3233C25.5207 19.876 26.0566 19.5272 26.6467 19.2993C27.2369 19.0714 27.8681 18.9694 28.5 19C29.1319 18.9694 29.7632 19.0714 30.3533 19.2993C30.9434 19.5272 31.4794 19.876 31.9267 20.3233C32.374 20.7706 32.7228 21.3066 32.9507 21.8967C33.1786 22.4868 33.2806 23.1181 33.25 23.75C33.2806 24.3818 33.1786 25.0131 32.9507 25.6032C32.7228 26.1934 32.374 26.7293 31.9267 27.1766C31.4794 27.6239 30.9434 27.9727 30.3533 28.2006C29.7632 28.4285 29.1319 28.5305 28.5 28.5Z" fill="black"/>
</svg>
